<svg xmlns="http://www.w3.org/2000/svg" viewBox="0 0 24 24">
  <path fill="#FFFC00" stroke="#000" stroke-width="0.8" d="M12 2c2.9 0 5.3 2.3 5.3 5.2v2.6c0 .6.6.9 1.3 1.1.7.2 1.4.4 1.4 1.1 0 .7-.7 1-1.4 1.2-.8.2-1.3.5-1.3 1 0 .7.3 1.6.7 2.1.4.5 1.4.9 1.4 1.4 0 .5-.7.6-1.6.8-.6.1-1.1.4-1.4.8-.4.6-.6 1.5-2.1 1.5-.7 0-1.3-.2-1.8-.4-.5-.2-1.1-.4-1.6-.4s-1.1.2-1.6.4c-.5.2-1.1.4-1.8.4-1.5 0-1.7-.9-2.1-1.5-.3-.4-.8-.7-1.4-.8-.9-.2-1.6-.3-1.6-.8 0-.5 1-.9 1.4-1.4.4-.5.7-1.4.7-2.1 0-.5-.5-.8-1.3-1-.7-.2-1.4-.5-1.4-1.2 0-.7.7-.9 1.4-1.1.7-.2 1.3-.5 1.3-1.1V7.2C6.7 4.3 9.1 2 12 2z"></path>
</svg>
