<svg xmlns="http://www.w3.org/2000/svg" viewBox="0 0 24 24">
  <path fill="#000000" d="M15.5 3.1c.9.8 2.1 1.4 3.5 1.5v3.2c-1.6.1-3.1-.4-4.5-1.3v7.6c0 3.1-2.5 5.6-5.6 5.6S3.3 17.2 3.3 14.1c0-3 2.3-5.4 5.3-5.6v3.2c-.7.2-1.3.9-1.3 1.7 0 1 .8 1.9 1.9 1.9s1.9-.8 1.9-1.9V2.3h4.4z"></path>
  <path fill="#25F4EE" d="M15.5 3.1c.9.8 2.1 1.4 3.5 1.5v1.5c-1.6-.1-3.1-.6-4.5-1.5v7.6c0 3.1-2.5 5.6-5.6 5.6-.5 0-.9-.1-1.3-.2 2.5-.6 4.3-2.8 4.3-5.4V3.1h3.6z"></path>
  <path fill="#FE2C55" d="M8.6 11.7c-.7.2-1.3.9-1.3 1.7 0 .9.6 1.6 1.4 1.8-.1 0-.3.1-.4.1-1 0-1.9-.8-1.9-1.9 0-.9.6-1.6 1.4-1.8.2-.1.5-.1.8-.1z"></path>
</svg>
